<svg id="mi-logo" xmlns="http://www.w3.org/2000/svg" width="206.776" height="31.676" viewBox="0 0 206.776 31.676">
  <path id="パス_106" data-name="パス 106" d="M38.339,9.3,35.5,22.425h4.859L43.135,9.3Z" transform="translate(-13.1 -3.432)" fill="#fff"/>
  <path id="パス_107" data-name="パス 107" d="M45.99,1.8h-4.8L40.5,5.081h4.8Z" transform="translate(-14.945 -0.664)" fill="#fff"/>
  <path id="パス_108" data-name="パス 108" d="M58.795,8.8a5.879,5.879,0,0,0-4.354,2.335L53.81,9.115H50.276L47.5,22.24h4.732l1.577-7.256c.315-1.451,1.136-2.524,2.4-2.524,1.073,0,1.514.757,1.262,2.082l-1.641,7.7h4.732l1.7-7.887c.757-3.912-.946-5.553-3.47-5.553" transform="translate(-17.528 -3.247)" fill="#fff"/>
  <path id="パス_109" data-name="パス 109" d="M81.015,8.8c-4.291,0-7.572,3.092-7.824,7.761-.252,4.165,2.4,6.184,6.31,6.184,3.66,0,6.247-1.83,7-4.732h-4.48a2.464,2.464,0,0,1-2.272,1.451c-1.325,0-2.082-.694-1.956-2.713h8.96c.126-.5.189-1.2.252-1.641.126-4.1-2.082-6.31-5.994-6.31m1.514,5.616H78.112c.5-1.641,1.451-2.461,2.713-2.461s1.956.82,1.7,2.461" transform="translate(-27.002 -3.247)" fill="#fff"/>
  <path id="パス_110" data-name="パス 110" d="M131.215,8.8c-4.291,0-7.572,3.092-7.824,7.761-.252,4.165,2.4,6.184,6.31,6.184,3.66,0,6.247-1.83,7-4.732h-4.48a2.464,2.464,0,0,1-2.272,1.451c-1.325,0-2.082-.694-1.956-2.713h8.96c.126-.5.189-1.2.252-1.641.189-4.1-2.019-6.31-5.994-6.31m1.514,5.616h-4.417c.5-1.641,1.451-2.461,2.713-2.461,1.325,0,1.956.82,1.7,2.461" transform="translate(-45.526 -3.247)" fill="#fff"/>
  <path id="パス_111" data-name="パス 111" d="M314,22.425h4.859L321.635,9.3h-4.8Z" transform="translate(-115.869 -3.432)" fill="#fff"/>
  <path id="パス_112" data-name="パス 112" d="M319.694,1.8,319,5.081h4.8L324.49,1.8Z" transform="translate(-117.714 -0.664)" fill="#fff"/>
  <path id="パス_113" data-name="パス 113" d="M186.5,1.8l-4.8,8.518h-.126L180.5,1.8h-6.815L169.9,19.657h4.669L177.03,8.236h.126l1.767,11.421h1.451L187,8.236h.126l-2.4,11.421h4.859L193.436,1.8Z" transform="translate(-62.695 -0.664)" fill="#fff"/>
  <path id="パス_114" data-name="パス 114" d="M16.532,1.8,11.8,10.318h-.126L10.6,1.8H3.786L0,19.657H4.669L7.13,8.236h.126L9.023,19.657h1.451L17.1,8.236h.126l-2.4,11.421h4.859L23.473,1.8Z" transform="translate(0 -0.664)" fill="#fff"/>
  <path id="パス_115" data-name="パス 115" d="M205.5,22.425h4.8L213.135,9.3h-4.859Z" transform="translate(-75.831 -3.432)" fill="#fff"/>
  <path id="パス_116" data-name="パス 116" d="M211.094,1.8,210.4,5.081h4.859l.694-3.281Z" transform="translate(-77.639 -0.664)" fill="#fff"/>
  <path id="パス_117" data-name="パス 117" d="M223.923,10.942h2.966l.694-3.155h-2.966l.568-2.587H220.7L218.37,16.305c-.694,3.155.189,4.922,3.344,4.922a9,9,0,0,0,3.092-.568l.694-3.407a6.859,6.859,0,0,1-1.641.252c-.947,0-1.2-.442-1.01-1.451Z" transform="translate(-80.499 -1.919)" fill="#fff"/>
  <path id="パス_118" data-name="パス 118" d="M296.567,8.8a6.465,6.465,0,0,0-4.669,2.335c-.379-1.641-1.577-2.335-3.281-2.335a5.206,5.206,0,0,0-4.038,2.145l-.568-1.83h-3.534L277.7,22.24h4.732l1.767-8.392a2.574,2.574,0,0,1,2.019-1.451c1.073,0,1.325.694,1.01,2.082l-1.641,7.761h4.543s1.767-8.266,1.767-8.455A2.588,2.588,0,0,1,293.98,12.4c1.073,0,1.451.757,1.136,2.082l-1.641,7.761h4.859l1.7-7.95c.82-3.912-.883-5.49-3.47-5.49" transform="translate(-102.474 -3.247)" fill="#fff"/>
  <path id="パス_119" data-name="パス 119" d="M262.762,16.656c-.252,1.325-1.073,2.524-2.4,2.524-1.136,0-1.514-.631-1.262-2.019L260.743,9.4h-4.732l-1.641,7.95c-.757,3.66.442,5.49,3.281,5.49a6.007,6.007,0,0,0,4.48-2.272l.631,1.956H266.3L269.072,9.4h-4.8c0-.063-1.2,5.742-1.514,7.256" transform="translate(-93.783 -3.468)" fill="#fff"/>
  <path id="パス_120" data-name="パス 120" d="M239.461,11.892c.757,0,1.325.315,1.262.946h4.354c0-3.029-2.145-4.038-5.3-4.038-4.291,0-6.184,2.461-6.184,4.732,0,1.83.757,2.966,3.47,3.534,1.83.379,2.587.631,2.587,1.388,0,.631-.568.946-1.451.946-.82,0-1.451-.379-1.451-1.2h-4.354c-.189,3.155,2.019,4.48,5.616,4.48,3.534,0,6.31-1.641,6.31-4.8,0-2.524-1.325-3.281-3.786-3.849-1.893-.442-2.4-.568-2.4-1.262-.063-.5.442-.883,1.325-.883" transform="translate(-85.751 -3.247)" fill="#fff"/>
  <path id="パス_121" data-name="パス 121" d="M107.342,5.553a6.5,6.5,0,0,0-3.786,1.325L105.008,0h-4.669L96.3,18.993h3.407l1.262-1.451a4.808,4.808,0,0,0,4.038,1.767c3.723,0,7-3.218,7-8.834,0-3.155-1.893-4.922-4.669-4.922m-3.47,10.6c-1.388,0-2.208-1.388-1.767-3.723.5-2.272,1.83-3.723,3.344-3.723,1.2,0,1.893.82,1.893,2.335.063,2.966-1.641,5.111-3.47,5.111" transform="translate(-35.536)" fill="#fff"/>
  <path id="パス_122" data-name="パス 122" d="M155.21,8.8c-3.47,0-5.994,1.514-6.689,4.543H153a1.864,1.864,0,0,1,1.83-1.451c1.01,0,1.388.631,1.136,2.019-.063.252-.126.442-.126.442h-2.082c-4.228,0-6.247,1.262-6.815,3.975-.5,2.461,1.01,4.228,3.66,4.228a6.179,6.179,0,0,0,4.354-2.019l.5,1.641h3.407l1.641-7.635c.82-3.6-1.073-5.742-5.3-5.742m.063,8.329c-.252.946-1.325,2.335-2.587,2.335-.883,0-1.325-.5-1.2-1.262.126-.946.883-1.514,2.4-1.514H155.4Z" transform="translate(-54.188 -3.247)" fill="#fff"/>
  <path id="パス_123" data-name="パス 123" d="M1.388,37.1H3.975c1.325,0,2.272.442,2.272,1.893a2.324,2.324,0,0,1-2.524,2.272H1.956l-.5,2.335H0Zm.757,3.092H3.6a1.05,1.05,0,0,0,1.2-1.136c0-.631-.5-.82-1.01-.82h-1.2Z" transform="translate(0 -13.69)" fill="#fff"/>
  <path id="パス_124" data-name="パス 124" d="M10.868,41.277A1.963,1.963,0,0,1,13.076,39.7c.82,0,1.956.189,1.956,1.262a5.248,5.248,0,0,1-.126.82l-.379,1.893a2.147,2.147,0,0,0-.063.631.379.379,0,0,0,.063.252H13.266v-.442a2,2,0,0,1-1.451.568c-1.01,0-1.514-.568-1.514-1.262,0-.883.694-1.451,1.83-1.577,1.2-.126,1.767-.063,1.767-.694,0-.5-.5-.568-.82-.568a.846.846,0,0,0-.946.694Zm2.713,1.01a2.973,2.973,0,0,1-1.073.252c-.5.063-.946.189-.946.757,0,.379.315.5.694.5a1.18,1.18,0,0,0,1.2-1.073Z" transform="translate(-3.801 -14.65)" fill="#fff"/>
  <path id="パス_125" data-name="パス 125" d="M22.444,41.214a.615.615,0,0,0-.694-.631c-.442,0-.82.126-.82.442,0,.189.126.315.568.5l.631.189c.694.189,1.262.568,1.262,1.325,0,1.136-1.136,1.577-2.272,1.577-.946,0-2.019-.379-2.019-1.451v-.189h1.2v.126c0,.442.5.631.946.631.379,0,.82-.126.82-.568a.488.488,0,0,0-.442-.5l-.946-.252c-.631-.189-1.01-.442-1.01-1.2,0-1.136,1.2-1.514,2.082-1.514,1.01,0,1.956.315,1.893,1.514Z" transform="translate(-7.048 -14.65)" fill="#fff"/>
  <path id="パス_126" data-name="パス 126" d="M30.644,41.214a.615.615,0,0,0-.694-.631c-.442,0-.82.126-.82.442,0,.189.126.315.568.5l.631.189c.694.189,1.262.568,1.262,1.325,0,1.136-1.136,1.577-2.272,1.577-.946,0-2.019-.379-2.019-1.451v-.189h1.2v.126c0,.442.5.631.946.631.379,0,.82-.126.82-.568a.488.488,0,0,0-.442-.5l-.946-.252c-.631-.189-1.01-.442-1.01-1.2,0-1.136,1.2-1.514,2.082-1.514,1.01,0,1.956.315,1.893,1.514Z" transform="translate(-10.074 -14.65)" fill="#fff"/>
  <path id="パス_127" data-name="パス 127" d="M36.61,38.93h1.325l-1.01,4.732H35.6Zm1.451-.757H36.736l.252-1.073h1.325Z" transform="translate(-13.137 -13.69)" fill="#fff"/>
  <path id="パス_128" data-name="パス 128" d="M40.3,42.7a2.7,2.7,0,0,1,2.713-2.9,1.943,1.943,0,0,1,2.208,2.019,2.734,2.734,0,0,1-2.776,2.966A2,2,0,0,1,40.3,42.7m1.325,0a.963.963,0,0,0,.946,1.073c.946,0,1.388-1.2,1.388-1.956,0-.631-.252-1.01-.946-1.01-.946-.063-1.388,1.073-1.388,1.893" transform="translate(-14.871 -14.687)" fill="#fff"/>
  <path id="パス_129" data-name="パス 129" d="M50.246,39.926h1.262l-.126.631h0a2.035,2.035,0,0,1,1.641-.757c.883,0,1.388.442,1.388,1.262,0,.189-.126.631-.126.82l-.568,2.776H52.455l.568-2.776c0-.126.063-.442.063-.568a.623.623,0,0,0-.631-.5,1.425,1.425,0,0,0-1.325,1.325l-.568,2.524H49.3Z" transform="translate(-18.192 -14.687)" fill="#fff"/>
  <path id="パス_130" data-name="パス 130" d="M64.835,39.114h.946L65.592,40h-.946l-.5,2.272a.276.276,0,0,1-.063.189c0,.315.252.315.442.315h.442l-.252,1.01c-.252,0-.5.063-.82.063-.631,0-1.262-.189-1.2-.946a1.232,1.232,0,0,1,.063-.442l.568-2.524H62.5l.189-.883h.82l.315-1.451h1.262Z" transform="translate(-23.063 -13.875)" fill="#fff"/>
  <path id="パス_131" data-name="パス 131" d="M68.4,42.7a2.7,2.7,0,0,1,2.713-2.9,1.943,1.943,0,0,1,2.208,2.019,2.734,2.734,0,0,1-2.776,2.966A1.972,1.972,0,0,1,68.4,42.7m1.262,0a.963.963,0,0,0,.946,1.073c.946,0,1.388-1.2,1.388-1.956,0-.631-.252-1.01-.946-1.01-.946-.063-1.388,1.073-1.388,1.893" transform="translate(-25.24 -14.687)" fill="#fff"/>
  <path id="パス_132" data-name="パス 132" d="M85.332,39.3A1.05,1.05,0,0,0,84.2,38.1c-1.451,0-2.145,1.451-2.145,2.713,0,.883.442,1.7,1.451,1.7a1.623,1.623,0,0,0,1.514-1.262h1.451c-.568,1.83-1.577,2.461-2.966,2.461a2.627,2.627,0,0,1-2.9-2.9A3.66,3.66,0,0,1,84.134,36.9c1.514,0,2.65.82,2.587,2.4Z" transform="translate(-29.742 -13.616)" fill="#fff"/>
  <path id="パス_133" data-name="パス 133" d="M92.446,39.889h1.262l-.189.82h0A1.819,1.819,0,0,1,95.16,39.7h.379l-.252,1.262a1.747,1.747,0,0,0-.568-.063c-1.01,0-1.325.757-1.514,1.514L92.762,44.5H91.5Z" transform="translate(-33.764 -14.65)" fill="#fff"/>
  <path id="パス_134" data-name="パス 134" d="M99.625,42.576v.252a.883.883,0,0,0,1.01.946,1.065,1.065,0,0,0,.946-.631h1.262a2.319,2.319,0,0,1-2.461,1.641A1.893,1.893,0,0,1,98.3,42.7a2.715,2.715,0,0,1,2.587-2.9,1.96,1.96,0,0,1,2.208,2.082,3.072,3.072,0,0,1-.063.757H99.625Zm2.272-.82c0-.5-.126-1.01-.883-1.01a1.239,1.239,0,0,0-1.262,1.01Z" transform="translate(-36.274 -14.687)" fill="#fff"/>
  <path id="パス_135" data-name="パス 135" d="M281.11,39.889h1.2l-.189.82h0a1.819,1.819,0,0,1,1.641-1.01h.379l-.252,1.262a1.747,1.747,0,0,0-.568-.063c-1.01,0-1.325.757-1.514,1.514l-.442,2.082H280.1Z" transform="translate(-103.359 -14.65)" fill="#fff"/>
  <path id="パス_136" data-name="パス 136" d="M288.225,42.576v.252a.883.883,0,0,0,1.01.946,1.065,1.065,0,0,0,.946-.631h1.262a2.319,2.319,0,0,1-2.461,1.641A1.893,1.893,0,0,1,286.9,42.7a2.715,2.715,0,0,1,2.587-2.9,1.96,1.96,0,0,1,2.208,2.082,3.072,3.072,0,0,1-.063.757h-3.407Zm2.272-.82c0-.5-.126-1.01-.883-1.01a1.239,1.239,0,0,0-1.262,1.01Z" transform="translate(-105.869 -14.687)" fill="#fff"/>
  <path id="パス_137" data-name="パス 137" d="M107.831,41.277a1.963,1.963,0,0,1,2.208-1.577c.82,0,1.956.189,1.956,1.262a5.247,5.247,0,0,1-.126.82l-.442,1.893a2.147,2.147,0,0,0-.063.631.379.379,0,0,0,.063.252h-1.262v-.442a2,2,0,0,1-1.451.568c-1.01,0-1.514-.568-1.514-1.262,0-.883.694-1.451,1.83-1.577,1.2-.126,1.767-.063,1.767-.694,0-.5-.5-.568-.82-.568a.846.846,0,0,0-.946.694Zm2.713,1.01a2.973,2.973,0,0,1-1.073.252c-.5.063-.946.189-.946.757,0,.379.315.5.694.5a1.18,1.18,0,0,0,1.2-1.073Z" transform="translate(-39.558 -14.65)" fill="#fff"/>
  <path id="パス_138" data-name="パス 138" d="M118.835,39.151h.946l-.189.883h-.946l-.5,2.335a.276.276,0,0,1-.063.189c0,.315.252.315.442.315h.442l-.252,1.01c-.252,0-.5.063-.82.063-.631,0-1.262-.189-1.2-.946a1.232,1.232,0,0,1,.063-.442l.568-2.524h-.82l.189-.883h.82l.315-1.451h1.262Z" transform="translate(-42.99 -13.912)" fill="#fff"/>
  <path id="パス_139" data-name="パス 139" d="M123.725,42.576v.252a.883.883,0,0,0,1.01.946,1.065,1.065,0,0,0,.946-.631h1.262a2.319,2.319,0,0,1-2.461,1.641A1.893,1.893,0,0,1,122.4,42.7a2.715,2.715,0,0,1,2.587-2.9,1.96,1.96,0,0,1,2.208,2.082,3.072,3.072,0,0,1-.063.757h-3.407Zm2.272-.82c0-.5-.126-1.01-.883-1.01a1.239,1.239,0,0,0-1.262,1.01Z" transform="translate(-45.167 -14.687)" fill="#fff"/>
  <path id="パス_140" data-name="パス 140" d="M138.035,43.6h-1.641l-.694-6.5h1.451l.379,4.859h0l2.524-4.859h1.451Z" transform="translate(-50.075 -13.69)" fill="#fff"/>
  <path id="パス_141" data-name="パス 141" d="M144.531,41.277a1.963,1.963,0,0,1,2.208-1.577c.82,0,1.956.189,1.956,1.262a5.248,5.248,0,0,1-.126.82l-.442,1.893a2.147,2.147,0,0,0-.063.631.379.379,0,0,0,.063.252h-1.262v-.442a2,2,0,0,1-1.451.568c-1.01,0-1.514-.568-1.514-1.262,0-.883.694-1.451,1.83-1.577,1.2-.126,1.767-.063,1.767-.694,0-.5-.5-.568-.82-.568a.846.846,0,0,0-.946.694Zm2.713,1.01a2.973,2.973,0,0,1-1.073.252c-.5.063-.946.189-.946.757,0,.379.315.5.694.5a1.18,1.18,0,0,0,1.2-1.073Z" transform="translate(-53.1 -14.65)" fill="#fff"/>
  <path id="パス_142" data-name="パス 142" d="M154.251,37.1h1.262l-1.388,6.5H152.8Z" transform="translate(-56.385 -13.69)" fill="#fff"/>
  <path id="パス_143" data-name="パス 143" d="M161.965,44.669H160.7l.126-.631h0a2.035,2.035,0,0,1-1.641.757c-.883,0-1.388-.442-1.388-1.262a3.694,3.694,0,0,1,.126-.82L158.557,40h1.262l-.568,2.776a1.747,1.747,0,0,0-.063.568.623.623,0,0,0,.631.5,1.425,1.425,0,0,0,1.325-1.325L161.712,40h1.262Z" transform="translate(-58.23 -14.76)" fill="#fff"/>
  <path id="パス_144" data-name="パス 144" d="M168.325,42.576v.252a.883.883,0,0,0,1.01.946,1.065,1.065,0,0,0,.946-.631h1.262a2.319,2.319,0,0,1-2.461,1.641A1.893,1.893,0,0,1,167,42.7a2.715,2.715,0,0,1,2.587-2.9,1.96,1.96,0,0,1,2.208,2.082,3.072,3.072,0,0,1-.063.757h-3.407Zm2.272-.82c0-.5-.126-1.01-.883-1.01a1.239,1.239,0,0,0-1.262,1.01Z" transform="translate(-61.625 -14.687)" fill="#fff"/>
  <path id="パス_145" data-name="パス 145" d="M182.235,39.151h.946l-.189.883h-.946l-.5,2.335a.276.276,0,0,1-.063.189c0,.315.252.315.442.315h.442l-.252,1.01c-.252,0-.5.063-.82.063-.631,0-1.262-.189-1.2-.946a1.232,1.232,0,0,1,.063-.442l.568-2.524h-.82l.189-.883h.82l.316-1.451h1.262Z" transform="translate(-66.385 -13.912)" fill="#fff"/>
  <path id="パス_146" data-name="パス 146" d="M187.225,37.1h1.262l-.5,2.335h0a1.941,1.941,0,0,1,1.577-.694c.883,0,1.388.442,1.388,1.262,0,.189-.126.631-.126.82l-.568,2.776h-1.262l.568-2.776c0-.126.063-.442.063-.568a.623.623,0,0,0-.631-.5,1.425,1.425,0,0,0-1.325,1.325l-.5,2.524H185.9Z" transform="translate(-68.599 -13.69)" fill="#fff"/>
  <path id="パス_147" data-name="パス 147" d="M196.11,39.889h1.2l-.189.82h0a1.819,1.819,0,0,1,1.641-1.01h.379l-.252,1.262a1.747,1.747,0,0,0-.568-.063c-1.01,0-1.325.757-1.514,1.514l-.442,2.082H195.1Z" transform="translate(-71.994 -14.65)" fill="#fff"/>
  <path id="パス_148" data-name="パス 148" d="M202.1,42.7a2.7,2.7,0,0,1,2.713-2.9,1.943,1.943,0,0,1,2.208,2.019,2.734,2.734,0,0,1-2.776,2.966A1.972,1.972,0,0,1,202.1,42.7m1.262,0a.963.963,0,0,0,.946,1.073c.947,0,1.388-1.2,1.388-1.956,0-.631-.252-1.01-.947-1.01-.946-.063-1.388,1.073-1.388,1.893" transform="translate(-74.577 -14.687)" fill="#fff"/>
  <path id="パス_149" data-name="パス 149" d="M215.465,44.632H214.2l.126-.631h0a2.035,2.035,0,0,1-1.641.757c-.883,0-1.388-.442-1.388-1.262a3.693,3.693,0,0,1,.126-.82l.568-2.776h1.262l-.568,2.776a1.747,1.747,0,0,0-.063.568.623.623,0,0,0,.631.5,1.425,1.425,0,0,0,1.325-1.325l.568-2.524h1.262Z" transform="translate(-77.972 -14.723)" fill="#fff"/>
  <path id="パス_150" data-name="パス 150" d="M224.806,44.38a2.3,2.3,0,0,1-2.587,2.019c-.947,0-2.019-.379-2.019-1.514h1.262a.729.729,0,0,0,.82.694c.82,0,1.073-.694,1.325-1.641h0a1.562,1.562,0,0,1-1.325.694,1.74,1.74,0,0,1-1.83-1.893,2.627,2.627,0,0,1,2.4-2.839,1.488,1.488,0,0,1,1.451.82h0l.126-.694h1.262Zm-1.641-3.6c-.883,0-1.325,1.01-1.325,1.767,0,.568.252,1.01.883,1.01.946,0,1.388-1.01,1.388-1.767a.911.911,0,0,0-.946-1.01" transform="translate(-81.256 -14.723)" fill="#fff"/>
  <path id="パス_151" data-name="パス 151" d="M231.288,37.1h1.262l-.5,2.335h0a1.941,1.941,0,0,1,1.577-.694c.883,0,1.388.442,1.388,1.262,0,.189-.126.631-.126.82l-.568,2.776h-1.262l.568-2.776c0-.126.063-.442.063-.568a.623.623,0,0,0-.631-.5,1.425,1.425,0,0,0-1.325,1.325l-.568,2.524H229.9Z" transform="translate(-84.835 -13.69)" fill="#fff"/>
  <path id="パス_152" data-name="パス 152" d="M244.588,37.1h2.335c1.83,0,2.776.946,2.776,2.524,0,2.272-1.262,3.975-3.786,3.975H243.2Zm.315,5.3h1.073a2.291,2.291,0,0,0,2.272-2.524c0-.946-.379-1.577-1.388-1.577h-1.073Z" transform="translate(-89.743 -13.69)" fill="#fff"/>
  <path id="パス_153" data-name="パス 153" d="M255.61,38.93h1.325l-1.01,4.732H254.6Zm1.451-.757h-1.325l.252-1.073h1.325Z" transform="translate(-93.95 -13.69)" fill="#fff"/>
  <path id="パス_154" data-name="パス 154" d="M260.52,39.75h-.757l.126-.82h.757c.252-1.2.5-1.83,1.83-1.83a3.6,3.6,0,0,1,.82.063l-.189.946h-.442c-.631,0-.631.315-.757.883h.947l-.189.883h-.883l-.82,3.849H259.7Z" transform="translate(-95.832 -13.69)" fill="#fff"/>
  <path id="パス_155" data-name="パス 155" d="M266.457,39.75H265.7l.189-.82h.757c.252-1.2.5-1.83,1.83-1.83a3.6,3.6,0,0,1,.82.063l-.189.946h-.442c-.631,0-.631.315-.757.883h.947l-.189.883h-.883l-.82,3.849H265.7Z" transform="translate(-98.046 -13.69)" fill="#fff"/>
  <path id="パス_156" data-name="パス 156" d="M272.525,42.576v.252a.883.883,0,0,0,1.01.946,1.065,1.065,0,0,0,.946-.631h1.262a2.319,2.319,0,0,1-2.461,1.641A1.893,1.893,0,0,1,271.2,42.7a2.715,2.715,0,0,1,2.587-2.9A1.96,1.96,0,0,1,276,41.882a3.072,3.072,0,0,1-.063.757h-3.407Zm2.272-.82c0-.5-.126-1.01-.883-1.01a1.239,1.239,0,0,0-1.262,1.01Z" transform="translate(-100.075 -14.687)" fill="#fff"/>
  <path id="パス_157" data-name="パス 157" d="M296.746,39.926h1.262l-.126.631h0a2.035,2.035,0,0,1,1.641-.757c.883,0,1.388.442,1.388,1.262,0,.189-.126.631-.126.82l-.568,2.776h-1.262l.568-2.776c0-.126.063-.442.063-.568a.623.623,0,0,0-.631-.5,1.425,1.425,0,0,0-1.325,1.325l-.568,2.524H295.8Z" transform="translate(-109.153 -14.687)" fill="#fff"/>
  <path id="パス_158" data-name="パス 158" d="M308.834,41.467c0-.568-.315-.757-.883-.757-1.01,0-1.325,1.2-1.325,2.019,0,.568.252,1.01.883,1.01a1.139,1.139,0,0,0,1.073-.883h1.262a2.384,2.384,0,0,1-2.461,1.83,1.821,1.821,0,0,1-2.082-2.019,2.707,2.707,0,0,1,2.65-2.966c1.136,0,2.082.5,2.082,1.767Z" transform="translate(-112.658 -14.65)" fill="#fff"/>
  <path id="パス_159" data-name="パス 159" d="M315.325,42.576v.252a.883.883,0,0,0,1.01.946,1.065,1.065,0,0,0,.947-.631h1.262a2.319,2.319,0,0,1-2.461,1.641A1.893,1.893,0,0,1,314,42.7a2.715,2.715,0,0,1,2.587-2.9,1.96,1.96,0,0,1,2.208,2.082,3.072,3.072,0,0,1-.063.757h-3.407Zm2.335-.82c0-.5-.126-1.01-.883-1.01a1.239,1.239,0,0,0-1.262,1.01Z" transform="translate(-115.869 -14.687)" fill="#fff"/>
</svg>
